<svg xmlns="http://www.w3.org/2000/svg" viewBox="0 0 500 190.3">
    <defs>
        <style>
            .cls-1{fill:#6c5ad4}
        </style>
    </defs>
    <g id="Layer_2" data-name="Layer 2">
        <g id="Capa_1" data-name="Capa 1">
            <path class="cls-1" d="M192.11 135.93h9.06l16.23 43.7h-7.49l-3.63-10h-19.41l-3.62 10h-7.49ZM203.85 163l-7.24-20.1-7.3 20.1ZM260.63 153.17 253.7 157a11.81 11.81 0 0 0-3.86-2.84 11.62 11.62 0 0 0-4.47-.79 10.44 10.44 0 0 0-7.56 2.78 9.51 9.51 0 0 0-2.88 7.14 9.14 9.14 0 0 0 2.78 6.91 10 10 0 0 0 7.29 2.68 10.62 10.62 0 0 0 8.7-3.81l6.56 4.49q-5.34 6.94-15.06 6.94-8.74 0-13.7-5.18a17.23 17.23 0 0 1 4.18-27.38 20.08 20.08 0 0 1 9.64-2.31 19.61 19.61 0 0 1 8.88 2 16.86 16.86 0 0 1 6.43 5.54ZM300.32 175.94a15.73 15.73 0 0 1-5.12 3.31 16.71 16.71 0 0 1-6.31 1.19 16.87 16.87 0 0 1-15.11-8.84 19.21 19.21 0 0 1 0-18 16.84 16.84 0 0 1 6.22-6.5 17 17 0 0 1 8.9-2.37 16.7 16.7 0 0 1 6.31 1.18 15.9 15.9 0 0 1 5.12 3.31v-3.68h6.93v34.09h-6.93Zm-5.32-3.52a10.71 10.71 0 0 0 3.9-4 12.44 12.44 0 0 0 0-11.62 10.75 10.75 0 0 0-3.9-4 10.61 10.61 0 0 0-5.53-1.47 10.87 10.87 0 0 0-5.58 1.47 10.57 10.57 0 0 0-4 4 12.52 12.52 0 0 0 0 11.62 10.53 10.53 0 0 0 4 4 11 11 0 0 0 5.58 1.46 10.7 10.7 0 0 0 5.53-1.46ZM347 175.94a15.73 15.73 0 0 1-5.12 3.31 16.71 16.71 0 0 1-6.31 1.19 16.87 16.87 0 0 1-15.11-8.84 19.21 19.21 0 0 1 0-18 16.84 16.84 0 0 1 6.21-6.46 17 17 0 0 1 8.9-2.37 16.7 16.7 0 0 1 6.31 1.18 15.9 15.9 0 0 1 5.12 3.31v-15.71h6.86v46.08H347Zm-5.34-3.52a10.71 10.71 0 0 0 3.9-4 12.44 12.44 0 0 0 0-11.62 10.75 10.75 0 0 0-3.9-4 10.61 10.61 0 0 0-5.53-1.47 10.87 10.87 0 0 0-5.58 1.47 10.57 10.57 0 0 0-4 4 12.44 12.44 0 0 0 0 11.62 10.53 10.53 0 0 0 4 4 11 11 0 0 0 5.58 1.46 10.7 10.7 0 0 0 5.55-1.46ZM373.74 178.07a17.4 17.4 0 0 1-6.5-6.47 18.35 18.35 0 0 1 0-18 17.37 17.37 0 0 1 6.5-6.46 17.8 17.8 0 0 1 9.05-2.37 16.53 16.53 0 0 1 8.68 2.37 17.13 17.13 0 0 1 6.21 6.46 18.21 18.21 0 0 1 2.28 9 14.82 14.82 0 0 1-.37 3.19h-27.35a10.47 10.47 0 0 0 3.84 5.86 10.63 10.63 0 0 0 6.71 2.25 9.67 9.67 0 0 0 5-1.37 7.88 7.88 0 0 0 3.35-3.62h7.74a15 15 0 0 1-5.87 8.36 17.07 17.07 0 0 1-10.24 3.19 17.8 17.8 0 0 1-9.03-2.39Zm18.91-18.55a10.81 10.81 0 0 0-3.59-6 9.46 9.46 0 0 0-6.27-2.28 10.77 10.77 0 0 0-10.61 8.24ZM449 153.19a6 6 0 0 0-4.5-1.91 6.75 6.75 0 0 0-4.89 1.91 6.49 6.49 0 0 0-2 4.9v21.54h-6.81v-21.54a6.75 6.75 0 0 0-1.85-4.9 6 6 0 0 0-4.52-1.91 6.67 6.67 0 0 0-4.87 1.91 6.57 6.57 0 0 0-1.93 4.9v21.54h-6.87v-34.09h6.87v3.37a10 10 0 0 1 3.65-3.06 10.24 10.24 0 0 1 4.59-1.06 11.41 11.41 0 0 1 5.33 1.21 11.08 11.08 0 0 1 4 3.56 12.35 12.35 0 0 1 4.68-3.53 14.78 14.78 0 0 1 6.06-1.28 11.21 11.21 0 0 1 6.06 1.68 11.47 11.47 0 0 1 4.18 4.69 15.27 15.27 0 0 1 1.5 6.93v21.54h-6.87v-21.5a6.85 6.85 0 0 0-1.81-4.9ZM478.88 179.63l-13.68-34.09h7.24l10.18 26.09 10.05-26.09H500l-18.19 44.76h-7.49ZM207.6 121.88V0h18.16v41.45a41.64 41.64 0 0 1 13.55-8.75A44.08 44.08 0 0 1 256 29.56a44.7 44.7 0 0 1 40 23.37 48.66 48.66 0 0 1 5.95 23.86 48.67 48.67 0 0 1-5.95 23.87 44.53 44.53 0 0 1-16.43 17.09A45 45 0 0 1 256 124a44.08 44.08 0 0 1-16.68-3.14 41.64 41.64 0 0 1-13.55-8.75v9.74Zm61.68-19.08a27.73 27.73 0 0 0 10.49-10.65 30.85 30.85 0 0 0 3.8-15.36 30.84 30.84 0 0 0-3.8-15.35 27.83 27.83 0 0 0-10.49-10.66 29 29 0 0 0-14.78-3.88 28 28 0 0 0-24.94 14.54 30.84 30.84 0 0 0-3.8 15.35 30.85 30.85 0 0 0 3.8 15.36 28.06 28.06 0 0 0 24.94 14.54 28.91 28.91 0 0 0 14.78-3.89ZM94.74 9v19.66H56.08v.2h1.19c-10.35 0-19 3.51-26.1 10.62s-10.62 15.68-10.62 26a38.59 38.59 0 0 0 4.71 19.22 33.48 33.48 0 0 0 13.28 13.13 39 39 0 0 0 17.92 4.79h38.28v19.77H56.46c-16.41-.15-29.89-5.44-40.39-16Q0 90.47 0 65.51c0-10.82 2.43-20.36 7.34-28.7a53.76 53.76 0 0 1 20.89-20.2 57.89 57.89 0 0 1 25.49-7.53C54.53 9 55.31 9 56.08 9h1.47ZM148 33.56a44.85 44.85 0 0 1 22.48 6 43.86 43.86 0 0 1 22.37 38.34 44.35 44.35 0 0 1-5.94 22.36 42.81 42.81 0 0 1-16.19 16.27 44.73 44.73 0 0 1-22.6 5.87 42.15 42.15 0 0 1-31-12.93 42.89 42.89 0 0 1-12.85-31.42q0-19.8 14.52-33A42.43 42.43 0 0 1 148 33.56Zm.35 20a21.81 21.81 0 0 0-16.46 6.87q-6.56 6.87-6.57 17.59 0 11 6.5 17.86a21.72 21.72 0 0 0 16.45 6.83 22 22 0 0 0 16.57-6.91q6.62-6.92 6.61-17.78T165 60.31q-6.49-6.79-16.61-6.79ZM382.87 35.38H404v84.18h-21.13v-8.9a41.5 41.5 0 0 1-12.4 8.47 34.72 34.72 0 0 1-13.47 2.59q-16.31 0-28.21-12.65t-11.91-31.45q0-19.5 11.51-31.95t28-12.46a35.53 35.53 0 0 1 14.22 2.87 38.73 38.73 0 0 1 12.29 8.59Zm-22.2 17.33a21.32 21.32 0 0 0-16.27 6.93q-6.48 6.92-6.48 17.75t6.59 18a21.34 21.34 0 0 0 16.23 7 21.75 21.75 0 0 0 16.5-6.93q6.56-6.92 6.55-18.14 0-11-6.55-17.79a22 22 0 0 0-16.57-6.82ZM425.34 35.38h21.12V44a50.87 50.87 0 0 1 13-8.42 31.45 31.45 0 0 1 11.93-2.37A28.9 28.9 0 0 1 492.66 42q7.33 7.42 7.34 22v55.63h-20.89V82.69q0-15.06-1.35-20a13.71 13.71 0 0 0-4.71-7.53 13.18 13.18 0 0 0-8.3-2.59 15.53 15.53 0 0 0-11 4.29q-4.61 4.27-6.38 11.86-.92 3.95-.92 17.07v33.78h-21.11Z"/>
        </g>
    </g>
</svg>
