<svg xmlns="http://www.w3.org/2000/svg" viewBox="0 0 512 512">
    <defs>
        <style>
            .cls-1{fill:#6c5ad4}
        </style>
    </defs>
    <g id="Layer_2" data-name="Layer 2">
        <g id="Capa_1" data-name="Capa 1">
            <path class="cls-1" d="M419.09 512H92.91A93 93 0 0 1 0 419.1V92.91A93 93 0 0 1 92.91 0h326.18A93 93 0 0 1 512 92.91V419.1a93 93 0 0 1-92.91 92.9ZM92.91 12.66a80.34 80.34 0 0 0-80.25 80.25V419.1a80.34 80.34 0 0 0 80.25 80.24h326.18a80.34 80.34 0 0 0 80.25-80.24V92.91a80.34 80.34 0 0 0-80.25-80.25Z"/>
            <path class="cls-1" d="m301.08 264.36-21.26 15.95-43.1 32.35-1.08.76a86.6 86.6 0 1 1-103.93-138.55L196 126.64l-28.91-38.55-64.24 48.23a134.78 134.78 0 0 0-27 188.61c40 53.42 112.34 68.61 169.69 38.8a127.74 127.74 0 0 0 18.96-11.83l24.56-18.42 60.57-45.38Z"/>
            <path class="cls-1" d="m429.88 250.57-223-109.44 29.88 171.53 8.86 51.07 3.86 22.16 9.11 53.29 43.17-32.35-9.18-53.22-3.48-20.13-9.24-53.17-9.43-54.49 36 17.66 80.38 39.43 23 11.2 25.63 12.53 43.1-32.34Z"/>
        </g>
    </g>
</svg>
