<svg width="226" height="199" viewBox="0 0 226 199" fill="none" xmlns="http://www.w3.org/2000/svg">
<path d="M124.663 12.5886C124.663 12.5886 105.914 54.6701 56.3312 45.03C6.74861 35.3899 -23.1247 103.212 23.7513 127.941C70.6274 152.671 38.1411 181.079 69.4042 195.59C104.937 212.082 118.187 156.935 144.365 162.057C202.139 173.361 237.877 153.974 222.074 127.884C194.335 82.0862 174.194 83.7722 182.379 54.1973C190.564 24.6225 144.341 -20.7799 124.663 12.5886Z" fill="#F0EFFB"/>
<g clip-path="url(#clip0_3237_1175)">
<path d="M71.9326 71.4639C71.9326 68.5637 71.9326 65.6636 71.9326 62.7635C71.9326 60.1917 73.1364 58.9878 75.763 58.9331C81.6727 58.9331 87.5824 58.9331 93.4921 58.9331C96.0092 58.9331 97.2131 60.1917 97.2131 62.654C97.2131 68.5638 97.2131 74.4735 97.2131 80.3832C97.2131 82.955 96.0092 84.2135 93.3827 84.2135C87.473 84.2135 81.5633 84.2135 75.6535 84.2135C73.1364 84.2135 71.9326 82.955 71.9326 80.4926C71.9326 77.483 71.9326 74.4735 71.9326 71.4639ZM78.3895 77.7566C82.6029 77.7566 86.7069 77.7566 90.7561 77.7566C90.7561 73.5432 90.7561 69.494 90.7561 65.39C86.5975 65.39 82.4935 65.39 78.3895 65.39C78.3895 69.5487 78.3895 73.5979 78.3895 77.7566Z" fill="#6C5AD4"/>
<path d="M128.731 71.5733C128.731 68.6185 128.731 65.6636 128.731 62.7088C128.731 60.1917 129.935 58.9331 132.452 58.9331C138.417 58.9331 144.381 58.9331 150.346 58.9331C152.753 58.9331 154.012 60.1369 154.067 62.5446C154.121 68.5637 154.121 74.5829 154.067 80.6021C154.067 83.0097 152.808 84.2135 150.346 84.2135C144.381 84.2135 138.417 84.2683 132.452 84.2135C129.99 84.2135 128.786 82.955 128.731 80.4379C128.731 77.483 128.731 74.5282 128.731 71.5733ZM135.188 65.39C135.188 69.6581 135.188 73.7074 135.188 77.7566C139.402 77.7566 143.451 77.7566 147.555 77.7566C147.555 73.5432 147.555 69.494 147.555 65.39C143.396 65.39 139.347 65.39 135.188 65.39Z" fill="#6C5AD4"/>
<path d="M71.9326 128.372C71.9326 125.472 71.9326 122.572 71.9326 119.672C71.9326 116.936 73.1365 115.732 75.763 115.732C81.618 115.732 87.473 115.732 93.328 115.732C96.0093 115.732 97.1584 116.936 97.1584 119.672C97.1584 125.472 97.1584 131.327 97.1584 137.127C97.1584 139.863 95.9545 141.067 93.1638 141.067C87.4183 141.067 81.618 141.067 75.8725 141.067C73.027 141.067 71.8779 139.918 71.8779 137.018C71.9326 134.118 71.9326 131.218 71.9326 128.372ZM78.3896 122.189C78.3896 126.402 78.3896 130.452 78.3896 134.555C82.5482 134.555 86.6522 134.555 90.7562 134.555C90.7562 130.397 90.7562 126.348 90.7562 122.189C86.5975 122.189 82.5482 122.189 78.3896 122.189Z" fill="#6C5AD4"/>
<path d="M154.012 128.482C154.012 131.327 154.012 134.172 154.012 137.073C154.012 139.863 152.808 141.067 150.072 141.067C144.272 141.067 138.417 141.067 132.617 141.067C129.935 141.067 128.677 139.863 128.677 137.182C128.677 131.327 128.677 125.472 128.677 119.617C128.677 116.99 129.881 115.787 132.452 115.787C138.362 115.787 144.272 115.787 150.182 115.787C152.753 115.787 153.957 117.045 153.957 119.617C154.067 122.572 154.012 125.527 154.012 128.482ZM135.188 134.555C139.402 134.555 143.451 134.555 147.555 134.555C147.555 130.342 147.555 126.293 147.555 122.189C143.396 122.189 139.292 122.189 135.188 122.189C135.188 126.347 135.188 130.397 135.188 134.555Z" fill="#6C5AD4"/>
<path d="M59.4022 46.4022C59.4022 47.1683 59.4022 47.7702 59.4022 48.3174C59.4022 56.9083 59.4022 65.4446 59.4022 74.0356C59.4022 76.3338 58.3625 77.7018 56.5568 77.8659C54.9152 78.0301 53.5472 77.0451 53.1642 75.4036C53.0547 74.8564 53.0547 74.3092 53.0547 73.8167C53 63.9124 53 54.0082 53 44.104C53 41.1491 54.1491 40 56.9945 40C66.9535 40 76.9124 40 86.8714 40C87.145 40 87.4733 40 87.7469 40C89.6074 40.1642 90.8112 41.368 90.8659 43.119C90.8659 44.9248 89.6621 46.1833 87.6922 46.3475C87.2544 46.4022 86.8167 46.3475 86.3789 46.3475C78.0616 46.3475 69.7442 46.3475 61.3721 46.3475C60.7702 46.4022 60.223 46.4022 59.4022 46.4022Z" fill="#6C5AD4"/>
<path d="M166.598 46.4022C165.831 46.4022 165.23 46.4022 164.628 46.4022C156.201 46.4022 147.774 46.4022 139.347 46.4022C138.691 46.4022 138.034 46.4022 137.432 46.238C135.955 45.9097 135.079 44.7059 135.079 43.2284C135.079 41.751 135.955 40.5472 137.377 40.2188C137.979 40.0547 138.636 40.0547 139.293 40.0547C149.033 40.0547 158.827 40.0547 168.567 40.0547C171.851 40.0547 172.945 41.0944 172.945 44.3775C172.945 54.1176 172.945 63.9124 172.945 73.6525C172.945 73.9808 172.945 74.3639 172.945 74.6922C172.781 76.6621 171.577 77.9206 169.771 77.9206C167.966 77.9206 166.707 76.7168 166.598 74.7469C166.543 74.3091 166.598 73.8714 166.598 73.4336C166.598 65.1162 166.598 56.7989 166.598 48.4268C166.598 47.7701 166.598 47.2229 166.598 46.4022Z" fill="#6C5AD4"/>
<path d="M59.4022 153.598C60.223 153.598 60.8249 153.598 61.3721 153.598C69.6895 153.598 78.0068 153.598 86.3789 153.598C86.8167 153.598 87.2544 153.598 87.6922 153.598C89.6621 153.762 90.8659 155.02 90.8659 156.771C90.8659 158.577 89.6074 159.781 87.6375 159.945C87.3092 159.945 86.9261 159.945 86.5978 159.945C76.8577 159.945 67.0629 159.945 57.3228 159.945C54.0397 159.945 53 158.905 53 155.567C53 145.827 53 136.033 53 126.293C53 125.691 53 125.089 53.1094 124.541C53.4378 123.009 54.6416 122.079 56.1737 122.079C57.7059 122.079 58.9097 123.009 59.238 124.596C59.3475 125.143 59.3475 125.745 59.3475 126.347C59.3475 134.774 59.3475 143.201 59.3475 151.628C59.4022 152.23 59.4022 152.831 59.4022 153.598Z" fill="#6C5AD4"/>
<path d="M166.598 153.598C166.598 152.832 166.598 152.23 166.598 151.683C166.598 143.092 166.598 134.555 166.598 125.964C166.598 123.666 167.638 122.298 169.444 122.134C171.085 121.97 172.453 122.955 172.836 124.542C172.946 125.089 173 125.636 173 126.129C173 136.033 173 145.937 173 155.841C173 158.741 171.851 159.945 169.006 159.945C158.992 159.945 148.978 159.945 139.019 159.945C138.418 159.945 137.816 159.89 137.268 159.726C135.955 159.343 135.134 158.085 135.189 156.662C135.244 155.239 135.955 154.254 137.323 153.817C137.98 153.598 138.691 153.598 139.348 153.598C147.775 153.598 156.201 153.598 164.628 153.598C165.175 153.598 165.777 153.598 166.598 153.598Z" fill="#6C5AD4"/>
<path d="M103.451 109.494C102.685 109.494 102.083 109.494 101.481 109.494C92.8357 109.494 84.1353 109.494 75.4896 109.494C72.8083 109.494 71.2215 107.305 72.2612 105.062C72.9178 103.639 74.1216 103.201 75.6538 103.201C84.7919 103.201 93.8754 103.201 103.014 103.201C104.163 103.201 105.257 103.201 106.406 103.201C108.486 103.256 109.744 104.46 109.744 106.484C109.799 112.394 109.799 118.304 109.744 124.213C109.744 126.129 108.431 127.442 106.68 127.497C104.819 127.551 103.506 126.183 103.506 124.159C103.451 119.891 103.506 115.568 103.506 111.3C103.451 110.807 103.451 110.26 103.451 109.494Z" fill="#6C5AD4"/>
<path d="M116.146 134.665C116.146 132.202 116.146 130.013 116.146 127.77C116.146 122.681 116.146 117.592 116.146 112.558C116.146 110.424 117.514 109.056 119.375 109.165C121.18 109.22 122.384 110.588 122.439 112.667C122.439 119.288 122.439 125.855 122.439 132.476C122.439 134.172 122.439 135.814 122.439 137.51C122.384 139.699 121.235 141.012 119.101 141.012C114.942 141.067 110.838 141.067 106.68 141.012C104.71 140.957 103.451 139.644 103.451 137.893C103.451 136.033 104.71 134.719 106.789 134.719C109.853 134.61 112.918 134.665 116.146 134.665Z" fill="#6C5AD4"/>
<path d="M135.079 103.201C136.119 103.201 136.994 103.201 137.87 103.201C142.138 103.201 146.461 103.201 150.729 103.201C152.644 103.201 154.012 104.569 154.012 106.32C154.012 108.071 152.644 109.439 150.783 109.494C144.545 109.549 138.253 109.549 132.015 109.494C130.045 109.494 128.731 108.29 128.731 106.266C128.677 102.107 128.677 98.0029 128.731 93.8442C128.786 91.8196 130.154 90.5063 131.96 90.5063C133.711 90.5611 135.024 91.8196 135.079 93.7895C135.134 96.2519 135.079 98.7143 135.079 101.177C135.134 101.779 135.079 102.38 135.079 103.201Z" fill="#6C5AD4"/>
<path d="M109.744 77.8661C112.699 77.8661 115.544 77.8661 118.335 77.8661C118.991 77.8661 119.648 77.9208 120.25 78.085C121.618 78.468 122.494 79.6718 122.494 81.0398C122.494 82.4078 121.618 83.6664 120.305 83.9947C119.758 84.1588 119.156 84.2136 118.554 84.2136C114.833 84.2136 111.167 84.2136 107.446 84.2136C104.6 84.2136 103.506 83.1192 103.506 80.2737C103.506 74.4187 103.506 68.5638 103.506 62.7088C103.506 60.3558 104.764 58.8784 106.734 58.9331C108.595 58.9878 109.799 60.4105 109.799 62.7088C109.744 67.6882 109.744 72.6677 109.744 77.8661Z" fill="#6C5AD4"/>
<path d="M116.147 96.7991C110.127 96.7991 104.437 96.7991 98.6911 96.7991C97.2137 96.7991 95.7363 96.7991 94.2588 96.7991C92.2342 96.7444 90.8662 95.4858 90.8662 93.6801C90.8662 91.8196 92.2889 90.5063 94.3683 90.5063C101.865 90.5063 109.361 90.5063 116.803 90.5063C117.569 90.5063 118.39 90.5063 119.156 90.5063C121.071 90.6158 122.33 91.8196 122.385 93.6801C122.439 95.8141 122.439 97.8935 122.385 100.028C122.33 101.888 120.907 103.256 119.156 103.201C117.46 103.147 116.201 101.833 116.092 100.028C116.147 99.0426 116.147 98.0029 116.147 96.7991Z" fill="#6C5AD4"/>
<path d="M147.665 96.7991C146.516 96.7991 145.421 96.8538 144.272 96.7991C142.521 96.6897 141.317 95.4311 141.317 93.7348C141.263 92.0385 142.466 90.6158 144.163 90.5611C146.516 90.4516 148.869 90.4516 151.221 90.5611C152.863 90.6158 154.122 92.1479 154.067 93.7348C154.012 95.3764 152.754 96.635 151.057 96.7991C150.948 96.7991 150.838 96.7991 150.784 96.7991C149.744 96.7991 148.704 96.7991 147.665 96.7991Z" fill="#6C5AD4"/>
<path d="M77.9526 96.7991C76.9129 96.7991 75.8732 96.8538 74.8336 96.7991C73.192 96.6897 71.9882 95.3764 71.9334 93.7895C71.8787 92.148 73.0825 90.6705 74.7789 90.5611C76.9129 90.4516 78.9923 90.4516 81.1263 90.5611C82.8226 90.6705 84.0265 92.148 83.9717 93.7895C83.917 95.3764 82.7132 96.635 81.0716 96.7991C80.0319 96.8538 78.9923 96.7991 77.9526 96.7991Z" fill="#6C5AD4"/>
<path d="M116.201 64.7879C116.201 63.8577 116.146 62.9274 116.201 61.9972C116.311 60.3009 117.514 59.1518 119.101 59.0424C120.798 58.9329 122.275 60.082 122.384 61.7783C122.494 63.8577 122.494 65.9917 122.384 68.1258C122.275 69.7674 120.852 70.8618 119.265 70.8618C117.624 70.8618 116.311 69.6579 116.201 67.9069C116.146 66.8673 116.201 65.8276 116.201 64.7879Z" fill="#6C5AD4"/>
</g>
<defs>
<clipPath id="clip0_3237_1175">
<rect width="120" height="120" fill="white" transform="translate(53 40)"/>
</clipPath>
</defs>
</svg>
